<svg width="24" height="21" viewBox="0 0 24 21" fill="none" xmlns="http://www.w3.org/2000/svg">
<path d="M13.2723 12.1429L14.1295 8.71428H10.7277L9.87054 12.1429H13.2723ZM23.558 5.39286L22.808 8.39286C22.7455 8.60714 22.6071 8.71428 22.3929 8.71428H18.0134L17.1563 12.1429H21.3214C21.4554 12.1429 21.567 12.1964 21.6563 12.3036C21.7455 12.4286 21.7723 12.5536 21.7366 12.6786L20.9866 15.6786C20.942 15.8929 20.8036 16 20.5714 16H16.192L15.1071 20.3929C15.0446 20.6071 14.9063 20.7143 14.692 20.7143H11.692C11.5491 20.7143 11.433 20.6607 11.3438 20.5536C11.2634 20.4464 11.2366 20.3214 11.2634 20.1786L12.308 16H8.90625L7.82143 20.3929C7.75893 20.6071 7.62054 20.7143 7.40625 20.7143H4.39286C4.25893 20.7143 4.14732 20.6607 4.05804 20.5536C3.97768 20.4464 3.95089 20.3214 3.97768 20.1786L5.02232 16H0.857143C0.723214 16 0.611607 15.9464 0.522321 15.8393C0.441964 15.7321 0.415179 15.6071 0.441964 15.4643L1.19196 12.4643C1.25446 12.25 1.39286 12.1429 1.60714 12.1429H5.98661L6.84375 8.71428H2.67857C2.54464 8.71428 2.43304 8.66071 2.34375 8.55357C2.25446 8.42857 2.22768 8.30357 2.26339 8.17857L3.01339 5.17857C3.05804 4.96429 3.19643 4.85714 3.42857 4.85714H7.80804L8.89286 0.464285C8.95536 0.249999 9.09821 0.142856 9.32143 0.142856H12.3214C12.4554 0.142856 12.567 0.196428 12.6562 0.303571C12.7366 0.410714 12.7634 0.535714 12.7366 0.678571L11.692 4.85714H15.0938L16.1786 0.464285C16.2411 0.249999 16.3839 0.142856 16.6071 0.142856H19.6071C19.7411 0.142856 19.8527 0.196428 19.942 0.303571C20.0223 0.410714 20.0491 0.535714 20.0223 0.678571L18.9777 4.85714H23.1429C23.2768 4.85714 23.3884 4.91071 23.4777 5.01786C23.558 5.125 23.5848 5.25 23.558 5.39286Z" fill="#B5B5B5"/>
</svg>
