<svg width="23" height="25" viewBox="0 0 23 25" fill="none" xmlns="http://www.w3.org/2000/svg">
<path d="M2.42522 22.7143H6.28237V18.8571H2.42522V22.7143ZM7.13951 22.7143H11.4252V18.8571H7.13951V22.7143ZM2.42522 18H6.28237V13.7143H2.42522V18ZM7.13951 18H11.4252V13.7143H7.13951V18ZM2.42522 12.8571H6.28237V9H2.42522V12.8571ZM12.2824 22.7143H16.5681V18.8571H12.2824V22.7143ZM7.13951 12.8571H11.4252V9H7.13951V12.8571ZM17.4252 22.7143H21.2824V18.8571H17.4252V22.7143ZM12.2824 18H16.5681V13.7143H12.2824V18ZM7.56808 6.42857V2.57143C7.56808 2.45536 7.52344 2.35714 7.43415 2.27678C7.35379 2.1875 7.25558 2.14286 7.13951 2.14286H6.28237C6.16629 2.14286 6.06362 2.1875 5.97433 2.27678C5.89397 2.35714 5.8538 2.45536 5.8538 2.57143V6.42857C5.8538 6.54464 5.89397 6.64732 5.97433 6.73661C6.06362 6.81696 6.16629 6.85714 6.28237 6.85714H7.13951C7.25558 6.85714 7.35379 6.81696 7.43415 6.73661C7.52344 6.64732 7.56808 6.54464 7.56808 6.42857ZM17.4252 18H21.2824V13.7143H17.4252V18ZM12.2824 12.8571H16.5681V9H12.2824V12.8571ZM17.4252 12.8571H21.2824V9H17.4252V12.8571ZM17.8538 6.42857V2.57143C17.8538 2.45536 17.8092 2.35714 17.7199 2.27678C17.6395 2.1875 17.5413 2.14286 17.4252 2.14286H16.5681C16.452 2.14286 16.3493 2.1875 16.26 2.27678C16.1797 2.35714 16.1395 2.45536 16.1395 2.57143V6.42857C16.1395 6.54464 16.1797 6.64732 16.26 6.73661C16.3493 6.81696 16.452 6.85714 16.5681 6.85714H17.4252C17.5413 6.85714 17.6395 6.81696 17.7199 6.73661C17.8092 6.64732 17.8538 6.54464 17.8538 6.42857ZM22.9967 5.57143V22.7143C22.9967 23.1786 22.827 23.5804 22.4877 23.9196C22.1484 24.2589 21.7467 24.4286 21.2824 24.4286H2.42522C1.96094 24.4286 1.55915 24.2589 1.21987 23.9196C0.88058 23.5804 0.710938 23.1786 0.710938 22.7143V5.57143C0.710938 5.10714 0.88058 4.70536 1.21987 4.36607C1.55915 4.02679 1.96094 3.85714 2.42522 3.85714H4.13951V2.57143C4.13951 1.98214 4.34933 1.47768 4.76897 1.05803C5.18862 0.638391 5.69308 0.42857 6.28237 0.42857H7.13951C7.72879 0.42857 8.23326 0.638391 8.6529 1.05803C9.07254 1.47768 9.28237 1.98214 9.28237 2.57143V3.85714H14.4252V2.57143C14.4252 1.98214 14.635 1.47768 15.0547 1.05803C15.4743 0.638391 15.9788 0.42857 16.5681 0.42857H17.4252C18.0145 0.42857 18.519 0.638391 18.9386 1.05803C19.3583 1.47768 19.5681 1.98214 19.5681 2.57143V3.85714H21.2824C21.7467 3.85714 22.1484 4.02679 22.4877 4.36607C22.827 4.70536 22.9967 5.10714 22.9967 5.57143Z" fill="#B5B5B5"/>
</svg>
