<svg width="14" height="14" viewBox="0 0 14 14" fill="none" xmlns="http://www.w3.org/2000/svg">
<path d="M9.08829 6.99995C9.08829 8.15495 8.15495 9.08829 6.99995 9.08829C5.84495 9.08829 4.91162 8.15495 4.91162 6.99995C4.91162 5.84495 5.84495 4.91162 6.99995 4.91162C8.15495 4.91162 9.08829 5.84495 9.08829 6.99995Z" stroke="#68616D" stroke-width="1.2" stroke-linecap="round" stroke-linejoin="round"/>
<path d="M7.00003 11.8242C9.0592 11.8242 10.9784 10.6109 12.3142 8.51088C12.8392 7.68838 12.8392 6.30588 12.3142 5.48338C10.9784 3.38338 9.0592 2.17004 7.00003 2.17004C4.94086 2.17004 3.0217 3.38338 1.68586 5.48338C1.16086 6.30588 1.16086 7.68838 1.68586 8.51088C3.0217 10.6109 4.94086 11.8242 7.00003 11.8242Z" stroke="#68616D" stroke-width="1.2" stroke-linecap="round" stroke-linejoin="round"/>
</svg>
