<svg width="27" height="18" viewBox="0 0 27 18" fill="none" xmlns="http://www.w3.org/2000/svg">
<path d="M5.86049 14.5714C5.27121 14.5714 4.76674 14.3616 4.3471 13.942C3.92746 13.5223 3.71763 13.0179 3.71763 12.4286V3C3.71763 2.41071 3.92746 1.90625 4.3471 1.48661C4.76674 1.06696 5.27121 0.857142 5.86049 0.857142H20.4319C21.0212 0.857142 21.5257 1.06696 21.9453 1.48661C22.365 1.90625 22.5748 2.41071 22.5748 3V12.4286C22.5748 13.0179 22.365 13.5223 21.9453 13.942C21.5257 14.3616 21.0212 14.5714 20.4319 14.5714H5.86049ZM5.43192 3V12.4286C5.43192 12.5446 5.4721 12.6473 5.55246 12.7366C5.64174 12.817 5.74442 12.8571 5.86049 12.8571H20.4319C20.548 12.8571 20.6462 12.817 20.7266 12.7366C20.8158 12.6473 20.8605 12.5446 20.8605 12.4286V3C20.8605 2.88393 20.8158 2.78571 20.7266 2.70536C20.6462 2.61607 20.548 2.57143 20.4319 2.57143H5.86049C5.74442 2.57143 5.64174 2.61607 5.55246 2.70536C5.4721 2.78571 5.43192 2.88393 5.43192 3ZM23.8605 15.4286H26.0034V16.7143C26.0034 17.0714 25.7935 17.375 25.3739 17.625C24.9542 17.875 24.4498 18 23.8605 18H2.43192C1.84263 18 1.33817 17.875 0.918527 17.625C0.498884 17.375 0.289062 17.0714 0.289062 16.7143V15.4286H2.43192H23.8605ZM14.2176 16.7143C14.3605 16.7143 14.4319 16.6429 14.4319 16.5C14.4319 16.3571 14.3605 16.2857 14.2176 16.2857H12.0748C11.9319 16.2857 11.8605 16.3571 11.8605 16.5C11.8605 16.6429 11.9319 16.7143 12.0748 16.7143H14.2176Z" fill="#B5B5B5"/>
</svg>
