<svg width="24" height="25" viewBox="0 0 24 25" fill="none" xmlns="http://www.w3.org/2000/svg">
<path d="M23.3705 4.40625C23.4598 4.49553 23.5045 4.59821 23.5045 4.71428C23.5045 4.83036 23.4598 4.93304 23.3705 5.02232L21.4821 6.91071C21.2321 7.16071 20.9286 7.28571 20.5714 7.28571H2.57143C2.33929 7.28571 2.13839 7.20089 1.96875 7.03125C1.79911 6.86161 1.71429 6.66071 1.71429 6.42857V3C1.71429 2.76786 1.79911 2.56696 1.96875 2.39732C2.13839 2.22768 2.33929 2.14286 2.57143 2.14286H10.2857V1.28571C10.2857 1.05357 10.3705 0.852677 10.5402 0.683035C10.7098 0.513391 10.9107 0.42857 11.1429 0.42857H12.8571C13.0893 0.42857 13.2902 0.513391 13.4598 0.683035C13.6295 0.852677 13.7143 1.05357 13.7143 1.28571V2.14286H20.5714C20.9286 2.14286 21.2321 2.26786 21.4821 2.51786L23.3705 4.40625ZM10.2857 16.7143H13.7143V23.5714C13.7143 23.8036 13.6295 24.0045 13.4598 24.1741C13.2902 24.3438 13.0893 24.4286 12.8571 24.4286H11.1429C10.9107 24.4286 10.7098 24.3438 10.5402 24.1741C10.3705 24.0045 10.2857 23.8036 10.2857 23.5714V16.7143ZM21.4286 10.7143C21.6607 10.7143 21.8616 10.7991 22.0313 10.9687C22.2009 11.1384 22.2857 11.3393 22.2857 11.5714V15C22.2857 15.2321 22.2009 15.433 22.0313 15.6027C21.8616 15.7723 21.6607 15.8571 21.4286 15.8571H3.42857C3.07143 15.8571 2.76786 15.7321 2.51786 15.4821L0.629464 13.5938C0.540179 13.5045 0.495536 13.4018 0.495536 13.2857C0.495536 13.1696 0.540179 13.067 0.629464 12.9777L2.51786 11.0893C2.76786 10.8393 3.07143 10.7143 3.42857 10.7143H10.2857V8.14286H13.7143V10.7143H21.4286Z" fill="#B5B5B5"/>
</svg>
