<svg width="14" height="19" viewBox="0 0 14 19" fill="none" xmlns="http://www.w3.org/2000/svg">
<path d="M13.0033 4.72321V6.08928C13.0033 6.21428 12.9632 6.31696 12.8828 6.39732C12.8025 6.47768 12.6998 6.51786 12.5748 6.51786H10.3248C10.1194 7.80357 9.54353 8.84821 8.5971 9.65179C7.65067 10.4554 6.41853 10.9464 4.90067 11.125C6.39174 12.7143 8.44085 15.1071 11.048 18.3036C11.173 18.4464 11.1908 18.5982 11.1016 18.7589C11.0301 18.9196 10.9007 19 10.7132 19H8.10156C7.95871 19 7.8471 18.9464 7.76674 18.8393C5.0346 15.5625 2.81138 13.0134 1.0971 11.192C1.01674 11.1116 0.976562 11.0134 0.976562 10.8973V9.19643C0.976562 9.08036 1.01674 8.98214 1.0971 8.90179C1.18638 8.8125 1.28906 8.76786 1.40513 8.76786H2.90513C4.08371 8.76786 5.03013 8.57589 5.74442 8.19196C6.46763 7.80804 6.92746 7.25 7.12388 6.51786H1.40513C1.28013 6.51786 1.17746 6.47768 1.0971 6.39732C1.01674 6.31696 0.976562 6.21428 0.976562 6.08928V4.72321C0.976562 4.59821 1.01674 4.49553 1.0971 4.41518C1.17746 4.33482 1.28013 4.29464 1.40513 4.29464H6.93638C6.42746 3.28571 5.23103 2.78125 3.3471 2.78125H1.40513C1.28906 2.78125 1.18638 2.74107 1.0971 2.66071C1.01674 2.57143 0.976562 2.46875 0.976562 2.35268V0.571427C0.976562 0.446427 1.01674 0.343749 1.0971 0.263392C1.17746 0.183035 1.28013 0.142856 1.40513 0.142856H12.548C12.673 0.142856 12.7757 0.183035 12.856 0.263392C12.9364 0.343749 12.9766 0.446427 12.9766 0.571427V1.9375C12.9766 2.0625 12.9364 2.16518 12.856 2.24553C12.7757 2.32589 12.673 2.36607 12.548 2.36607H9.42746C9.8471 2.91071 10.1328 3.55357 10.2846 4.29464H12.5748C12.6998 4.29464 12.8025 4.33482 12.8828 4.41518C12.9632 4.49553 13.0033 4.59821 13.0033 4.72321Z" fill="#B5B5B5"/>
</svg>
